<svg xmlns="http://www.w3.org/2000/svg" fill-rule="evenodd" stroke-linejoin="round" stroke-miterlimit="2" clip-rule="evenodd" viewBox="0 0 32 32"><path d="M16,1c-6.071,0 -11,4.929 -11,11c0,7.571 6.04,15.267 8.898,18.109c0.003,0.003 0.005,0.005 0.007,0.007c1.165,1.138 3.025,1.137 4.19,-0.001c0.002,-0.002 0.004,-0.004 0.006,-0.006c2.859,-2.842 8.899,-10.538 8.899,-18.109c0,-6.071 -4.929,-11 -11,-11Zm0,2c4.967,0 9,4.033 9,9c0,6.992 -5.662,14.058 -8.305,16.687c-0.386,0.375 -1,0.376 -1.387,0.003c-2.646,-2.632 -8.308,-9.698 -8.308,-16.69c0,-4.967 4.033,-9 9,-9Z"/><path d="M16,7c-2.76,0 -5,2.24 -5,5c0,2.76 2.24,5 5,5c2.76,0 5,-2.24 5,-5c0,-2.76 -2.24,-5 -5,-5Zm0,2c1.656,0 3,1.344 3,3c0,1.656 -1.344,3 -3,3c-1.656,0 -3,-1.344 -3,-3c0,-1.656 1.344,-3 3,-3Z"/></svg>