<svg xmlns="http://www.w3.org/2000/svg" enable-background="new 0 0 48 48" viewBox="0 0 48 48"><path d="M20.5,45h7H40c0.55,0,1-0.45,1-1V4c0-0.55-0.45-1-1-1H8C7.45,3,7,3.45,7,4v40c0,0.55,0.45,1,1,1H20.5z M26.5,43h-5v-7h5V43
		z M9,5h30v38H28.5v-8c0-0.55-0.45-1-1-1h-7c-0.55,0-1,0.45-1,1v8H9V5z"/><path d="M17 8h-4c-.55 0-1 .45-1 1v4c0 .55.45 1 1 1h4c.55 0 1-.45 1-1V9C18 8.45 17.55 8 17 8zM16 12h-2v-2h2V12zM22 14h4c.55 0 1-.45 1-1V9c0-.55-.45-1-1-1h-4c-.55 0-1 .45-1 1v4C21 13.55 21.45 14 22 14zM23 10h2v2h-2V10zM31 14h4c.55 0 1-.45 1-1V9c0-.55-.45-1-1-1h-4c-.55 0-1 .45-1 1v4C30 13.55 30.45 14 31 14zM32 10h2v2h-2V10zM17 16h-4c-.55 0-1 .45-1 1v4c0 .55.45 1 1 1h4c.55 0 1-.45 1-1v-4C18 16.45 17.55 16 17 16zM16 20h-2v-2h2V20zM22 22h4c.55 0 1-.45 1-1v-4c0-.55-.45-1-1-1h-4c-.55 0-1 .45-1 1v4C21 21.55 21.45 22 22 22zM23 18h2v2h-2V18zM31 22h4c.55 0 1-.45 1-1v-4c0-.55-.45-1-1-1h-4c-.55 0-1 .45-1 1v4C30 21.55 30.45 22 31 22zM32 18h2v2h-2V18zM17 24h-4c-.55 0-1 .45-1 1v4c0 .55.45 1 1 1h4c.55 0 1-.45 1-1v-4C18 24.45 17.55 24 17 24zM16 28h-2v-2h2V28zM22 30h4c.55 0 1-.45 1-1v-4c0-.55-.45-1-1-1h-4c-.55 0-1 .45-1 1v4C21 29.55 21.45 30 22 30zM23 26h2v2h-2V26zM31 30h4c.55 0 1-.45 1-1v-4c0-.55-.45-1-1-1h-4c-.55 0-1 .45-1 1v4C30 29.55 30.45 30 31 30zM32 26h2v2h-2V26z"/></svg>